:version 1.10
:name ASF
:units
  mass 1
  length 1
  angle deg
:documentation
  ASF file generated by Kaydara
:root
  axis xyz
  order  tx ty tz rx ry rz
  position 0 0 0
  orientation 0 0 0
:bonedata
  begin
    id 1
    name RightUpLegDummy
    direction -0.65628 -0.754516 0.00165102
    length 4.76918
    axis 0 0 0 xyz
  end
  begin
    id 2
    name RightUpLeg
    direction -0.145584 -0.923362 0.355256
    length 17.9961
    axis -24.7611 -13.1006 1.78531 xyz
    dof rx ry rz
  end
  begin
    id 3
    name RightLeg
    direction 0.263379 0.172355 -0.949171
    length 13.3386
    axis 89.6202 -21.1929 12.3855 xyz
    dof rx ry rz
  end
  begin
    id 4
    name RightFoot
    direction 0.224283 -0.968777 -0.105675
    length 5.86697
    axis 56.995 -39.6905 17.3365 xyz
    dof rx ry rz
  end
  begin
    id 5
    name RightToes
    direction -0.0806345 -0.9037 0.420506
    length 4.75197
    axis 146.825 -39.7828 17.6019 xyz
    dof rx ry rz
  end
  begin
    id 6
    name SpineDummy
    direction -3.39852e-014 1 9.33296e-014
    length 8.13779
    axis 0 0 0 xyz
  end
  begin
    id 7
    name Spine
    direction -0.156609 0.733703 0.661176
    length 7.14978
    axis 41.2365 5.68757 17.0844 xyz
    dof rx ry rz
  end
  begin
    id 8
    name Spine1
    direction 0 0 0
    length 0
    axis 42.8809 47.8308 -3.36039 xyz
    dof rx ry rz
  end
  begin
    id 9
    name HEadDummy
    direction 0.546431 0.701947 0.456819
    length 3.55512
    axis 42.8809 47.8308 -3.36039 xyz
  end
  begin
    id 10
    name HEad
    direction 0.23444 0.828559 0.508457
    length 7.35827
    axis 51.1864 49.2662 27.4903 xyz
    dof rx ry rz
  end
  begin
    id 11
    name LeftShoulder1Dummy
    direction 0.431183 0.475873 -0.766568
    length 2.49352
    axis 42.8809 47.8308 -3.36039 xyz
  end
  begin
    id 12
    name LeftShoulder1
    direction 0.268187 -0.383402 -0.883786
    length 4.48604
    axis -119.517 0.106469 35.1736 xyz
    dof rx ry rz
  end
  begin
    id 13
    name LeftArm
    direction 0.380567 -0.703221 -0.600541
    length 10.1142
    axis -5.41825 36.2925 7.8293 xyz
    dof rx ry rz
  end
  begin
    id 14
    name LeftForeArm
    direction 0.541071 -0.732356 -0.413396
    length 9.39839
    axis 4.65387 33.7604 7.81644 xyz
    dof rx ry rz
  end
  begin
    id 15
    name LeftHand
    direction 0.847511 -0.389379 -0.360707
    length 3.66142
    axis 7.65593 21.1436 -24.6758 xyz
    dof rx ry rz
  end
  begin
    id 16
    name RightShoulderDummy
    direction -0.692546 0.541855 0.476208
    length 2.49352
    axis 42.8809 47.8308 -3.36039 xyz
  end
  begin
    id 17
    name RightShoulder
    direction -0.870808 -0.316653 0.376065
    length 4.48602
    axis 141.571 51.133 -100.254 xyz
    dof rx ry rz
  end
  begin
    id 18
    name RightArm
    direction 0.366897 -0.87275 0.322015
    length 10.1142
    axis 92.3258 71.2036 138.917 xyz
    dof rx ry rz
  end
  begin
    id 19
    name RightForeArm
    direction 0.702487 -0.694568 0.155197
    length 9.39835
    axis 153.863 41.5092 -176.604 xyz
    dof rx ry rz
  end
  begin
    id 20
    name RightHand
    direction 0.79502 -0.601276 0.0800636
    length 3.66142
    axis 154.247 4.59222 142.9 xyz
    dof rx ry rz
  end
  begin
    id 21
    name LeftUpLegDummy
    direction 0.65628 -0.754516 0.00165102
    length 4.76919
    axis 0 0 0 xyz
  end
  begin
    id 22
    name LeftUpLeg
    direction -0.1277 -0.689368 0.713067
    length 17.9961
    axis -48.3385 -17.8675 0.791927 xyz
    dof rx ry rz
  end
  begin
    id 23
    name LeftLeg
    direction 0.109849 -0.991246 -0.0732378
    length 13.3386
    axis -2.05791 -7.30784 1.72042 xyz
    dof rx ry rz
  end
  begin
    id 24
    name LeftFoot
    direction 0.0448355 -0.272614 0.961078
    length 5.86697
    axis -18.7733 -7.89606 10.2113 xyz
    dof rx ry rz
  end
  begin
    id 25
    name LeftToes
    direction -0.18506 0.293668 0.937823
    length 4.75197
    axis 71.2267 -7.89606 10.2113 xyz
    dof rx ry rz
  end
:hierarchy
  begin
    root RightUpLegDummy SpineDummy LeftUpLegDummy
    RightUpLegDummy RightUpLeg
    RightUpLeg RightLeg
    RightLeg RightFoot
    RightFoot RightToes
    SpineDummy Spine
    Spine Spine1
    Spine1 HEadDummy LeftShoulder1Dummy RightShoulderDummy
    HEadDummy HEad
    LeftShoulder1Dummy LeftShoulder1
    LeftShoulder1 LeftArm
    LeftArm LeftForeArm
    LeftForeArm LeftHand
    RightShoulderDummy RightShoulder
    RightShoulder RightArm
    RightArm RightForeArm
    RightForeArm RightHand
    LeftUpLegDummy LeftUpLeg
    LeftUpLeg LeftLeg
    LeftLeg LeftFoot
    LeftFoot LeftToes
  end

:SAMPLES-PER-SECOND 30
:FULLY-SPECIFIED
:DEGREES
683
root  4.98457 35.9767 -13.2935 174.895 -67.4272 165.763
RightUpLeg  28.6425 0.0895348 1.40594
RightLeg  -74.5042 -21.0914 15.1741
RightFoot  -2.78132 7.10913 -16.0382
RightToes  -1.27222e-014 -6.36111e-015 6.36111e-015
Spine  -46.7806 -26.7225 -15.2566
Spine1  9.27369 -18.9112 60.9844
HEad  -11.0143 -40.6536 -4.69513
LeftShoulder1  6.36111e-015 -1.33558e-015 6.49777e-015
LeftArm  27.2484 6.06563 -39.2836
LeftForeArm  -4.65287 -35.2785 2.23443
LeftHand  -0.185834 1.00805 -6.23674
RightShoulder  -4.77083e-015 -6.36111e-015 -3.18055e-015
RightArm  97.7121 -43.5864 -77.0784
RightForeArm  3.9402 -8.38875 9.69873
RightHand  2.75033 -5.04963 -10.6064
LeftUpLeg  47.7897 21.1048 22.2136
LeftLeg  14.9049 2.64549 2.72665
LeftFoot  -12.841 3.04108 -16.7234
LeftToes  1.27222e-014 1.09105e-011 6.96064e-012
684
root  5.18941 35.9719 -13.1546 173.841 -66.9563 166.219
RightUpLeg  28.8466 0.0799206 1.12171
RightLeg  -74.1176 -20.8117 14.3915
RightFoot  -3.00343 7.1308 -16.0451
RightToes  -1.27222e-014 -6.36111e-015 6.36111e-015
Spine  -46.5333 -26.1006 -13.8801
Spine1  9.5961 -19.3516 60.6304
HEad  -11.4545 -40.0774 -4.88161
LeftShoulder1  6.36111e-015 -1.33558e-015 6.49777e-015
LeftArm  25.9684 6.7988 -40.3582
LeftForeArm  -3.81983 -36.5439 2.30486
LeftHand  -0.00642409 1.33711 -5.48523
RightShoulder  -4.77083e-015 -6.36111e-015 -3.18055e-015
RightArm  100.528 -42.5263 -77.7981
RightForeArm  2.75522 -8.77759 9.20035
RightHand  3.02152 -5.63525 -11.2262
LeftUpLeg  46.0339 21.1752 22.4553
LeftLeg  14.9676 5.97555 4.10282
LeftFoot  -12.9199 2.91586 -16.0912
LeftToes  1.27222e-014 1.09105e-011 6.96064e-012
685
root  5.3647 35.9636 -13.026 173.675 -66.3507 165.829
RightUpLeg  28.7435 0.506397 0.755512
RightLeg  -73.5377 -20.6971 13.7798
RightFoot  -3.33385 7.23096 -16.232
RightToes  -1.27222e-014 -6.36111e-015 6.36111e-015
Spine  -46.0672 -25.8197 -13.1644
Spine1  9.54196 -19.627 60.5089
HEad  -10.7947 -39.6932 -5.37001
LeftShoulder1  6.36111e-015 -1.33558e-015 6.49777e-015
LeftArm  26.0714 5.73863 -42.3514
LeftForeArm  -2.14126 -37.026 1.82676
LeftHand  -0.0180853 1.24077 -5.26456
RightShoulder  -4.77083e-015 -6.36111e-015 -3.18055e-015
RightArm  101.798 -41.9798 -75.9626
RightForeArm  1.48942 -8.00774 8.74094
RightHand  3.0694 -5.38377 -11.8568
LeftUpLeg  44.0987 21.5415 22.2819
LeftLeg  14.6034 7.13408 4.47958
LeftFoot  -12.8025 2.90763 -15.9531
LeftToes  1.27222e-014 1.09105e-011 6.96064e-012
686
root  5.52699 35.9523 -12.9024 173.719 -65.6182 165.168
RightUpLeg  28.5664 1.23178 0.613522
RightLeg  -72.831 -20.8034 13.4851
RightFoot  -3.19386 7.29633 -16.4315
RightToes  -1.27222e-014 -6.36111e-015 6.36111e-015
Spine  -45.5172 -25.7916 -12.9399
Spine1  9.50721 -19.839 60.6503
HEad  -9.53897 -39.4082 -6.2383
LeftShoulder1  6.36111e-015 -1.33558e-015 6.49777e-015
LeftArm  27.0047 3.9933 -44.3655
LeftForeArm  -0.207541 -37.4904 1.21335
LeftHand  -0.211299 0.772997 -5.65445
RightShoulder  -4.77083e-015 -6.36111e-015 -3.18055e-015
RightArm  101.018 -41.2296 -73.3754
RightForeArm  1.14352 -7.29462 8.6796
RightHand  2.8295 -4.62811 -11.6877
LeftUpLeg  42.2133 22.038 22.0665
LeftLeg  14.0138 6.39497 4.0336
LeftFoot  -12.5233 3.01537 -16.3265
LeftToes  1.27222e-014 1.09105e-011 6.96064e-012
687
root  5.67671 35.9461 -12.7758 173.609 -64.9741 164.722
RightUpLeg  28.5234 1.83836 0.55739
RightLeg  -72.3993 -20.8893 13.345
RightFoot  -2.98119 7.31195 -16.5164
RightToes  -1.27222e-014 -6.36111e-015 6.36111e-015
Spine  -45.2235 -25.7545 -12.7483
Spine1  9.65218 -20.0161 60.8648
HEad  -8.24928 -39.2507 -7.4812
LeftShoulder1  6.36111e-015 -1.33558e-015 6.49777e-015
LeftArm  28.0206 2.80686 -45.6387
LeftForeArm  1.27396 -37.8012 0.706966
LeftHand  -0.402307 0.36294 -6.28419
RightShoulder  -4.77083e-015 -6.36111e-015 -3.18055e-015
RightArm  98.7703 -39.7881 -71.6605
RightForeArm  1.56022 -6.93556 8.9853
RightHand  2.61441 -4.13092 -11.2384
LeftUpLeg  40.4403 22.5279 21.932
LeftLeg  12.9763 5.4565 3.42616
LeftFoot  -12.4163 3.0613 -16.4918
LeftToes  1.27222e-014 1.09105e-011 6.96064e-012
688
root  5.81192 35.9357 -12.64 173.383 -64.4477 164.495
RightUpLeg  28.5171 2.43837 0.678495
RightLeg  -72.2629 -21.0219 13.4786
RightFoot  -3.04616 7.35844 -16.6228
RightToes  -1.27222e-014 -6.36111e-015 6.36111e-015
Spine  -44.8773 -25.5386 -12.531
Spine1  9.60844 -20.0511 61.0692
HEad  -7.23795 -39.3061 -8.73411
LeftShoulder1  6.36111e-015 -1.33558e-015 6.49777e-015
LeftArm  28.6473 2.54936 -45.9621
LeftForeArm  1.59265 -36.7879 0.357947
LeftHand  -0.43795 0.38409 -6.78464
RightShoulder  -4.77083e-015 -6.36111e-015 -3.18055e-015
RightArm  95.6508 -38.137 -70.4135
RightForeArm  1.84321 -7.15496 9.16176
RightHand  2.61735 -4.11821 -11.2755
LeftUpLeg  38.6666 23.078 21.881
LeftLeg  11.7108 5.52176 3.15802
LeftFoot  -12.4184 3.03222 -16.3356
LeftToes  1.27222e-014 1.09105e-011 6.96064e-012
689
root  5.93715 35.9044 -12.4922 173.051 -64.0886 164.395
RightUpLeg  28.4305 3.06242 0.991386
RightLeg  -72.0302 -21.3378 13.8524
RightFoot  -3.08636 7.41559 -16.7622
RightToes  -1.27222e-014 -6.36111e-015 6.36111e-015
Spine  -44.1037 -25.2636 -12.4902
Spine1  9.15934 -19.9594 61.4469
HEad  -6.41755 -39.5564 -9.85124
LeftShoulder1  6.36111e-015 -1.33558e-015 6.49777e-015
LeftArm  28.7373 3.01584 -45.5736
LeftForeArm  0.913904 -34.1983 0.072737
LeftHand  -0.38746 0.581492 -6.93999
RightShoulder  -4.77083e-015 -6.36111e-015 -3.18055e-015
RightArm  91.7037 -36.558 -68.8874
RightForeArm  1.70482 -7.89194 9.16353
RightHand  2.7252 -4.29736 -11.6139
LeftUpLeg  36.7852 23.6903 21.8092
LeftLeg  10.6453 6.44852 3.21641
LeftFoot  -12.2177 3.05405 -16.2969
LeftToes  1.27222e-014 1.09105e-011 6.96064e-012
690
root  6.04905 35.8535 -12.337 172.511 -64.103 164.545
RightUpLeg  28.3128 3.25217 1.11628
RightLeg  -71.5808 -21.6529 14.0706
RightFoot  -2.96765 7.42176 -16.8021
RightToes  -1.27222e-014 -6.36111e-015 6.36111e-015
Spine  -43.2829 -25.0589 -12.554
Spine1  8.67839 -19.8785 62.1038
HEad  -5.64573 -39.9775 -11.0138
LeftShoulder1  6.36111e-015 -1.33558e-015 6.49777e-015
LeftArm  28.4959 3.82711 -44.8971
LeftForeArm  0.130857 -31.3108 -0.217317
LeftHand  -0.434479 0.433813 -6.93265
RightShoulder  -4.77083e-015 -6.36111e-015 -3.18055e-015
RightArm  87.056 -35.1348 -66.9358
RightForeArm  1.1474 -9.03827 9.0449
RightHand  2.78542 -4.45684 -11.7062
LeftUpLeg  34.8017 24.2218 21.5908
LeftLeg  9.82757 7.32652 3.28884
LeftFoot  -11.9313 3.12919 -16.4759
LeftToes  1.27222e-014 1.09105e-011 6.96064e-012
691
root  6.12875 35.7915 -12.1933 171.796 -64.5346 165.062
RightUpLeg  28.1788 2.80262 0.870374
RightLeg  -71.1168 -21.7869 13.9796
RightFoot  -3.02612 7.41653 -16.7768
RightToes  -1.27222e-014 -6.36111e-015 6.36111e-015
Spine  -43.0598 -24.8427 -12.5057
Spine1  8.66125 -19.8374 62.8233
HEad  -4.97133 -40.7184 -12.1345
LeftShoulder1  6.36111e-015 -1.33558e-015 6.49777e-015
LeftArm  28.4871 4.34974 -44.4462
LeftForeArm  -0.3794 -29.2231 -0.431523
LeftHand  -0.582553 0.0638778 -7.28293
RightShoulder  -4.77083e-015 -6.36111e-015 -3.18055e-015
RightArm  82.0841 -33.9701 -64.7563
RightForeArm  0.332008 -10.2316 8.7657
RightHand  2.78975 -4.51351 -11.6419
LeftUpLeg  32.6955 24.6387 21.2664
LeftLeg  9.2477 7.61142 3.22233
LeftFoot  -11.8387 3.16069 -16.5707
LeftToes  1.27222e-014 1.09105e-011 6.96064e-012
692
root  6.16556 35.7154 -12.0811 171.126 -65.1674 165.768
RightUpLeg  27.9441 2.11646 0.568629
RightLeg  -70.6853 -21.8879 13.8579
RightFoot  -3.37057 7.43912 -16.7657
RightToes  -1.27222e-014 -6.36111e-015 6.36111e-015
Spine  -43.4238 -24.5618 -12.4343
Spine1  9.11985 -19.7581 63.3766
HEad  -4.34002 -41.9192 -12.9521
LeftShoulder1  6.36111e-015 -1.33558e-015 6.49777e-015
LeftArm  29.1016 4.12352 -44.5651
LeftForeArm  -0.750232 -27.9411 -0.54198
LeftHand  -0.709568 -0.109176 -8.18089
RightShoulder  -4.77083e-015 -6.36111e-015 -3.18055e-015
RightArm  76.9257 -33.0129 -62.4261
RightForeArm  -0.254433 -10.9601 8.51696
RightHand  2.79445 -4.43326 -11.7947
LeftUpLeg  30.39 25.0853 20.9551
LeftLeg  9.16431 7.6356 3.20601
LeftFoot  -11.8075 3.14361 -16.4566
LeftToes  1.27222e-014 1.09105e-011 6.96064e-012
693
root  6.17143 35.6283 -11.9972 170.625 -65.8889 166.428
RightUpLeg  27.6288 1.52042 0.456928
RightLeg  -70.2409 -22.1212 13.9347
RightFoot  -3.69145 7.41907 -16.6474
RightToes  -1.27222e-014 -6.36111e-015 6.36111e-015
Spine  -43.885 -24.3435 -12.5561
Spine1  9.61561 -19.6173 63.91
HEad  -3.30447 -43.4301 -13.7877
LeftShoulder1  6.36111e-015 -1.33558e-015 6.49777e-015
LeftArm  30.1167 3.4891 -45.1773
LeftForeArm  -0.902274 -27.103 -0.635406
LeftHand  -0.835397 -0.237983 -9.27745
RightShoulder  -4.77083e-015 -6.36111e-015 -3.18055e-015
RightArm  71.4963 -32.0303 -59.8344
RightForeArm  -0.399087 -11.2438 8.56526
RightHand  2.83049 -4.35713 -12.1208
LeftUpLeg  27.9557 25.5978 20.6234
LeftLeg  9.62771 7.84075 3.39105
LeftFoot  -11.6179 3.14229 -16.3051
LeftToes  1.27222e-014 1.09105e-011 6.96064e-012
